<svg xmlns="http://www.w3.org/2000/svg" xmlns:xlink="http://www.w3.org/1999/xlink" width="19.027" height="19.037" viewBox="0 0 19.027 19.037">
  <defs>
    <radialGradient id="radial-gradient" cx="344.145" cy="32.601" r="5.353" gradientTransform="translate(0 0.001)" gradientUnits="userSpaceOnUse">
      <stop offset="0" stop-color="#d7b767"/>
      <stop offset="0.108" stop-color="#d0ad5d"/>
      <stop offset="0.456" stop-color="#be9442"/>
      <stop offset="0.764" stop-color="#b38431"/>
      <stop offset="1" stop-color="#b07f2c"/>
    </radialGradient>
  </defs>
  <g id="magnifier" transform="translate(-337.077 -25.47)">
    <path id="Path_2507" data-name="Path 2507" d="M344.841,25.47a6.183,6.183,0,0,0,.751.134,7.138,7.138,0,1,1-4.5.582,6.73,6.73,0,0,1,2.173-.652c.079-.01.173.013.237-.064h.186c.02.023.048.018.074.019s.054,0,.074-.019h.744c.02.023.048.018.074.019s.054,0,.074-.019Z" fill="#fff"/>
    <path id="Path_2508" data-name="Path 2508" d="M356.1,43.015c-.062.039-.047.11-.062.165a1.769,1.769,0,0,1-2.931.836c-1.085-1.042-2.134-2.121-3.2-3.184l-1.22-1.218a8.509,8.509,0,0,0,2.525-2.527c.654.655,1.3,1.3,1.939,1.942.678.679,1.35,1.365,2.037,2.034a2.688,2.688,0,0,1,.911,1.394Z" fill="#fff"/>
    <path id="Path_2509" data-name="Path 2509" d="M343.76,25.5c-.03,0-.062.012-.071-.031h.074c.012.008.016.015.011.022A.017.017,0,0,1,343.76,25.5Z" fill="#8f9194"/>
    <path id="Path_2510" data-name="Path 2510" d="M343.76,25.5l0-.031h.074A.06.06,0,0,1,343.76,25.5Z" fill="#747578"/>
    <path id="Path_2511" data-name="Path 2511" d="M344.657,25.5c-.032.006-.061,0-.076-.031h.074c.011.006.015.013.012.02S344.661,25.5,344.657,25.5Z" fill="#747578"/>
    <path id="Path_2512" data-name="Path 2512" d="M344.657,25.5c0-.01,0-.021,0-.031h.074C344.72,25.513,344.688,25.5,344.657,25.5Z" fill="#8f9194"/>
    <path id="Path_2513" data-name="Path 2513" d="M344.218,27.254a5.353,5.353,0,1,1-5.362,5.339A5.361,5.361,0,0,1,344.218,27.254Z" fill="url(#radial-gradient)"/>
    <path id="Path_2514" data-name="Path 2514" d="M340.639,32.607H340.3c-.273,0-.273,0-.252-.28a4.18,4.18,0,0,1,3.881-3.877c.044,0,.088,0,.13-.006.105-.015.153.009.148.134-.01.309-.008.619,0,.928,0,.109-.036.124-.136.132a2.938,2.938,0,0,0-2.635,1.886,2.549,2.549,0,0,0-.2.955c0,.108-.036.135-.137.13C340.949,32.6,340.794,32.607,340.639,32.607Z" fill="#fff"/>
  </g>
</svg>
